<mxfile host="app.diagrams.net" agent="Mozilla/5.0 (Macintosh; Intel Mac OS X 10_15_7) AppleWebKit/537.36 (KHTML, like Gecko) Chrome/125.0.0.0 Safari/537.36" version="24.7.5">
  <diagram name="第 1 页" id="tzc-c6cf4rMfpOVOBY_b">
    <mxGraphModel dx="1038" dy="1182" grid="1" gridSize="10" guides="1" tooltips="1" connect="1" arrows="1" fold="1" page="1" pageScale="1" pageWidth="827" pageHeight="1169" math="0" shadow="0">
      <root>
        <mxCell id="0" />
        <mxCell id="1" parent="0" />
        <mxCell id="7F-Ce298isWdIxQNQa6x-1" value="" style="rounded=1;whiteSpace=wrap;html=1;strokeWidth=2;dashed=1;" parent="1" vertex="1">
          <mxGeometry x="848" y="10" width="1220" height="810" as="geometry" />
        </mxCell>
        <mxCell id="7F-Ce298isWdIxQNQa6x-2" value="" style="group" parent="1" vertex="1" connectable="0">
          <mxGeometry x="1109" y="520" width="710" height="50" as="geometry" />
        </mxCell>
        <mxCell id="7F-Ce298isWdIxQNQa6x-3" value="" style="rounded=1;whiteSpace=wrap;html=1;container=0;" parent="7F-Ce298isWdIxQNQa6x-2" vertex="1">
          <mxGeometry width="710" height="50" as="geometry" />
        </mxCell>
        <mxCell id="7F-Ce298isWdIxQNQa6x-4" value="" style="ellipse;whiteSpace=wrap;html=1;aspect=fixed;fillColor=#c8e3ca;container=0;" parent="7F-Ce298isWdIxQNQa6x-2" vertex="1">
          <mxGeometry x="19" y="10" width="30" height="30" as="geometry" />
        </mxCell>
        <mxCell id="7F-Ce298isWdIxQNQa6x-5" value="" style="ellipse;whiteSpace=wrap;html=1;aspect=fixed;fillColor=#c8e3ca;container=0;" parent="7F-Ce298isWdIxQNQa6x-2" vertex="1">
          <mxGeometry x="60" y="10" width="30" height="30" as="geometry" />
        </mxCell>
        <mxCell id="7F-Ce298isWdIxQNQa6x-6" value="" style="ellipse;whiteSpace=wrap;html=1;aspect=fixed;fillColor=#c8e3ca;container=0;" parent="7F-Ce298isWdIxQNQa6x-2" vertex="1">
          <mxGeometry x="144" y="10" width="30" height="30" as="geometry" />
        </mxCell>
        <mxCell id="7F-Ce298isWdIxQNQa6x-7" value="" style="ellipse;whiteSpace=wrap;html=1;aspect=fixed;fillColor=#c8e3ca;container=0;" parent="7F-Ce298isWdIxQNQa6x-2" vertex="1">
          <mxGeometry x="103" y="10" width="30" height="30" as="geometry" />
        </mxCell>
        <mxCell id="7F-Ce298isWdIxQNQa6x-8" value="" style="ellipse;whiteSpace=wrap;html=1;aspect=fixed;fillColor=#afc8ea;container=0;" parent="7F-Ce298isWdIxQNQa6x-2" vertex="1">
          <mxGeometry x="192" y="10" width="30" height="30" as="geometry" />
        </mxCell>
        <mxCell id="7F-Ce298isWdIxQNQa6x-9" value="" style="ellipse;whiteSpace=wrap;html=1;aspect=fixed;fillColor=#afc8ea;container=0;" parent="7F-Ce298isWdIxQNQa6x-2" vertex="1">
          <mxGeometry x="233" y="10" width="30" height="30" as="geometry" />
        </mxCell>
        <mxCell id="7F-Ce298isWdIxQNQa6x-10" value="" style="ellipse;whiteSpace=wrap;html=1;aspect=fixed;fillColor=#afc8ea;container=0;" parent="7F-Ce298isWdIxQNQa6x-2" vertex="1">
          <mxGeometry x="317" y="10" width="30" height="30" as="geometry" />
        </mxCell>
        <mxCell id="7F-Ce298isWdIxQNQa6x-11" value="" style="ellipse;whiteSpace=wrap;html=1;aspect=fixed;fillColor=#afc8ea;container=0;" parent="7F-Ce298isWdIxQNQa6x-2" vertex="1">
          <mxGeometry x="276" y="10" width="30" height="30" as="geometry" />
        </mxCell>
        <mxCell id="7F-Ce298isWdIxQNQa6x-12" value="" style="ellipse;whiteSpace=wrap;html=1;aspect=fixed;fillColor=#fef1e0;container=0;" parent="7F-Ce298isWdIxQNQa6x-2" vertex="1">
          <mxGeometry x="364.75" y="10" width="30" height="30" as="geometry" />
        </mxCell>
        <mxCell id="7F-Ce298isWdIxQNQa6x-13" value="" style="ellipse;whiteSpace=wrap;html=1;aspect=fixed;fillColor=#fef1e0;container=0;" parent="7F-Ce298isWdIxQNQa6x-2" vertex="1">
          <mxGeometry x="405.75" y="10" width="30" height="30" as="geometry" />
        </mxCell>
        <mxCell id="7F-Ce298isWdIxQNQa6x-14" value="" style="ellipse;whiteSpace=wrap;html=1;aspect=fixed;fillColor=#fef1e0;container=0;" parent="7F-Ce298isWdIxQNQa6x-2" vertex="1">
          <mxGeometry x="489.75" y="10" width="30" height="30" as="geometry" />
        </mxCell>
        <mxCell id="7F-Ce298isWdIxQNQa6x-15" value="" style="ellipse;whiteSpace=wrap;html=1;aspect=fixed;fillColor=#fef1e0;container=0;" parent="7F-Ce298isWdIxQNQa6x-2" vertex="1">
          <mxGeometry x="448.75" y="10" width="30" height="30" as="geometry" />
        </mxCell>
        <mxCell id="7F-Ce298isWdIxQNQa6x-16" value="" style="ellipse;whiteSpace=wrap;html=1;aspect=fixed;fillColor=#ffd9d0;container=0;" parent="7F-Ce298isWdIxQNQa6x-2" vertex="1">
          <mxGeometry x="534" y="10" width="30" height="30" as="geometry" />
        </mxCell>
        <mxCell id="7F-Ce298isWdIxQNQa6x-17" value="" style="ellipse;whiteSpace=wrap;html=1;aspect=fixed;fillColor=#ffd9d0;container=0;" parent="7F-Ce298isWdIxQNQa6x-2" vertex="1">
          <mxGeometry x="575" y="10" width="30" height="30" as="geometry" />
        </mxCell>
        <mxCell id="7F-Ce298isWdIxQNQa6x-18" value="" style="ellipse;whiteSpace=wrap;html=1;aspect=fixed;fillColor=#ffd9d0;container=0;" parent="7F-Ce298isWdIxQNQa6x-2" vertex="1">
          <mxGeometry x="659" y="10" width="30" height="30" as="geometry" />
        </mxCell>
        <mxCell id="7F-Ce298isWdIxQNQa6x-19" value="" style="ellipse;whiteSpace=wrap;html=1;aspect=fixed;fillColor=#ffd9d0;container=0;" parent="7F-Ce298isWdIxQNQa6x-2" vertex="1">
          <mxGeometry x="618" y="10" width="30" height="30" as="geometry" />
        </mxCell>
        <mxCell id="7F-Ce298isWdIxQNQa6x-20" style="edgeStyle=orthogonalEdgeStyle;rounded=0;orthogonalLoop=1;jettySize=auto;html=1;exitX=0.5;exitY=0;exitDx=0;exitDy=0;entryX=0.5;entryY=1;entryDx=0;entryDy=0;" parent="1" source="7F-Ce298isWdIxQNQa6x-21" target="7F-Ce298isWdIxQNQa6x-23" edge="1">
          <mxGeometry relative="1" as="geometry" />
        </mxCell>
        <mxCell id="7F-Ce298isWdIxQNQa6x-21" value="&lt;font style=&quot;font-size: 30px;&quot; face=&quot;Times New Roman&quot;&gt;CNN&lt;sup&gt;k&lt;/sup&gt;&lt;/font&gt;" style="rounded=1;whiteSpace=wrap;html=1;fillColor=#D3C8D9;strokeColor=#9673a6;" parent="1" vertex="1">
          <mxGeometry x="988" y="383" width="158" height="60" as="geometry" />
        </mxCell>
        <mxCell id="7F-Ce298isWdIxQNQa6x-22" style="edgeStyle=orthogonalEdgeStyle;rounded=0;orthogonalLoop=1;jettySize=auto;html=1;exitX=0.5;exitY=0;exitDx=0;exitDy=0;entryX=0.5;entryY=1;entryDx=0;entryDy=0;" parent="1" source="7F-Ce298isWdIxQNQa6x-23" target="7F-Ce298isWdIxQNQa6x-27" edge="1">
          <mxGeometry relative="1" as="geometry" />
        </mxCell>
        <mxCell id="7F-Ce298isWdIxQNQa6x-23" value="&lt;font style=&quot;font-size: 30px;&quot; face=&quot;Times New Roman&quot;&gt;MeanPool&lt;/font&gt;" style="rounded=1;whiteSpace=wrap;html=1;fillColor=#D3C8D9;strokeColor=#9673a6;" parent="1" vertex="1">
          <mxGeometry x="988" y="250" width="158" height="60" as="geometry" />
        </mxCell>
        <mxCell id="7F-Ce298isWdIxQNQa6x-24" value="&lt;font style=&quot;font-size: 30px;&quot; face=&quot;Times New Roman&quot;&gt;Global Textual Aggregator&lt;/font&gt;" style="text;html=1;align=center;verticalAlign=middle;resizable=0;points=[];autosize=1;strokeColor=none;fillColor=none;" parent="1" vertex="1">
          <mxGeometry x="1288" y="30" width="340" height="50" as="geometry" />
        </mxCell>
        <mxCell id="7F-Ce298isWdIxQNQa6x-26" value="" style="group" parent="1" vertex="1" connectable="0">
          <mxGeometry x="1354" y="100" width="210" height="60" as="geometry" />
        </mxCell>
        <mxCell id="7F-Ce298isWdIxQNQa6x-27" value="&lt;font style=&quot;font-size: 30px;&quot; face=&quot;Times New Roman&quot;&gt;&lt;i&gt;h&lt;sub&gt;intent&lt;/sub&gt;&lt;/i&gt;&lt;/font&gt;" style="rounded=1;whiteSpace=wrap;html=1;" parent="7F-Ce298isWdIxQNQa6x-26" vertex="1">
          <mxGeometry width="210" height="60" as="geometry" />
        </mxCell>
        <mxCell id="7F-Ce298isWdIxQNQa6x-28" value="" style="ellipse;whiteSpace=wrap;html=1;aspect=fixed;fillColor=#e1d5e7;strokeColor=#9673a6;container=0;" parent="7F-Ce298isWdIxQNQa6x-26" vertex="1">
          <mxGeometry x="10" y="15" width="30" height="30" as="geometry" />
        </mxCell>
        <mxCell id="7F-Ce298isWdIxQNQa6x-29" style="edgeStyle=orthogonalEdgeStyle;rounded=0;orthogonalLoop=1;jettySize=auto;html=1;exitX=0.5;exitY=0;exitDx=0;exitDy=0;entryX=0.5;entryY=1;entryDx=0;entryDy=0;" parent="1" source="7F-Ce298isWdIxQNQa6x-30" target="7F-Ce298isWdIxQNQa6x-34" edge="1">
          <mxGeometry relative="1" as="geometry" />
        </mxCell>
        <mxCell id="7F-Ce298isWdIxQNQa6x-30" value="&lt;font style=&quot;font-size: 30px;&quot; face=&quot;Times New Roman&quot;&gt;CNN&lt;sup&gt;k&lt;/sup&gt;&lt;/font&gt;" style="rounded=1;whiteSpace=wrap;html=1;fillColor=#D3C8D9;strokeColor=#9673a6;" parent="1" vertex="1">
          <mxGeometry x="1380" y="383" width="158" height="60" as="geometry" />
        </mxCell>
        <mxCell id="7F-Ce298isWdIxQNQa6x-31" style="edgeStyle=orthogonalEdgeStyle;rounded=0;orthogonalLoop=1;jettySize=auto;html=1;exitX=0.5;exitY=0;exitDx=0;exitDy=0;entryX=0.5;entryY=1;entryDx=0;entryDy=0;" parent="1" source="7F-Ce298isWdIxQNQa6x-32" target="7F-Ce298isWdIxQNQa6x-36" edge="1">
          <mxGeometry relative="1" as="geometry" />
        </mxCell>
        <mxCell id="7F-Ce298isWdIxQNQa6x-32" value="&lt;font style=&quot;font-size: 30px;&quot; face=&quot;Times New Roman&quot;&gt;CNN&lt;sup&gt;k&lt;/sup&gt;&lt;/font&gt;" style="rounded=1;whiteSpace=wrap;html=1;fillColor=#D3C8D9;strokeColor=#9673a6;" parent="1" vertex="1">
          <mxGeometry x="1768" y="383" width="158" height="60" as="geometry" />
        </mxCell>
        <mxCell id="7F-Ce298isWdIxQNQa6x-72" style="edgeStyle=orthogonalEdgeStyle;rounded=0;orthogonalLoop=1;jettySize=auto;html=1;exitX=0.5;exitY=0;exitDx=0;exitDy=0;endArrow=none;endFill=0;" parent="1" source="7F-Ce298isWdIxQNQa6x-34" edge="1">
          <mxGeometry relative="1" as="geometry">
            <mxPoint x="1459.1707317073171" y="160" as="targetPoint" />
          </mxGeometry>
        </mxCell>
        <mxCell id="7F-Ce298isWdIxQNQa6x-34" value="&lt;font style=&quot;font-size: 30px;&quot; face=&quot;Times New Roman&quot;&gt;MeanPool&lt;/font&gt;" style="rounded=1;whiteSpace=wrap;html=1;fillColor=#D3C8D9;strokeColor=#9673a6;" parent="1" vertex="1">
          <mxGeometry x="1380" y="250" width="158" height="60" as="geometry" />
        </mxCell>
        <mxCell id="7F-Ce298isWdIxQNQa6x-71" style="edgeStyle=orthogonalEdgeStyle;rounded=0;orthogonalLoop=1;jettySize=auto;html=1;exitX=0.5;exitY=0;exitDx=0;exitDy=0;endArrow=none;endFill=0;" parent="1" edge="1">
          <mxGeometry relative="1" as="geometry">
            <mxPoint x="1459" y="160" as="targetPoint" />
            <mxPoint x="1848" y="250" as="sourcePoint" />
            <Array as="points">
              <mxPoint x="1848" y="205" />
              <mxPoint x="1459" y="205" />
            </Array>
          </mxGeometry>
        </mxCell>
        <mxCell id="7F-Ce298isWdIxQNQa6x-36" value="&lt;font style=&quot;font-size: 30px;&quot; face=&quot;Times New Roman&quot;&gt;MeanPool&lt;/font&gt;" style="rounded=1;whiteSpace=wrap;html=1;fillColor=#D3C8D9;strokeColor=#9673a6;" parent="1" vertex="1">
          <mxGeometry x="1768" y="250" width="158" height="60" as="geometry" />
        </mxCell>
        <mxCell id="7F-Ce298isWdIxQNQa6x-37" style="edgeStyle=orthogonalEdgeStyle;rounded=0;orthogonalLoop=1;jettySize=auto;html=1;exitX=0.5;exitY=0;exitDx=0;exitDy=0;entryX=0.5;entryY=1;entryDx=0;entryDy=0;" parent="1" source="7F-Ce298isWdIxQNQa6x-3" target="7F-Ce298isWdIxQNQa6x-21" edge="1">
          <mxGeometry relative="1" as="geometry" />
        </mxCell>
        <mxCell id="7F-Ce298isWdIxQNQa6x-38" style="edgeStyle=orthogonalEdgeStyle;rounded=0;orthogonalLoop=1;jettySize=auto;html=1;exitX=0.5;exitY=0;exitDx=0;exitDy=0;entryX=0.53;entryY=1.011;entryDx=0;entryDy=0;entryPerimeter=0;" parent="1" source="7F-Ce298isWdIxQNQa6x-3" target="7F-Ce298isWdIxQNQa6x-30" edge="1">
          <mxGeometry relative="1" as="geometry" />
        </mxCell>
        <mxCell id="7F-Ce298isWdIxQNQa6x-39" style="edgeStyle=orthogonalEdgeStyle;rounded=0;orthogonalLoop=1;jettySize=auto;html=1;exitX=0.5;exitY=0;exitDx=0;exitDy=0;" parent="1" source="7F-Ce298isWdIxQNQa6x-3" target="7F-Ce298isWdIxQNQa6x-32" edge="1">
          <mxGeometry relative="1" as="geometry" />
        </mxCell>
        <mxCell id="7F-Ce298isWdIxQNQa6x-40" value="&lt;span style=&quot;background-color: initial;&quot;&gt;&lt;font face=&quot;Times New Roman&quot; style=&quot;font-size: 25px;&quot;&gt;Concatenation&lt;/font&gt;&lt;/span&gt;" style="text;html=1;align=center;verticalAlign=middle;resizable=0;points=[];autosize=1;strokeColor=none;fillColor=none;" parent="1" vertex="1">
          <mxGeometry x="1488" y="170" width="170" height="40" as="geometry" />
        </mxCell>
        <mxCell id="7F-Ce298isWdIxQNQa6x-68" style="edgeStyle=orthogonalEdgeStyle;rounded=0;orthogonalLoop=1;jettySize=auto;html=1;exitX=0.5;exitY=0;exitDx=0;exitDy=0;entryX=0.5;entryY=1;entryDx=0;entryDy=0;endArrow=none;endFill=0;" parent="1" source="7F-Ce298isWdIxQNQa6x-41" target="7F-Ce298isWdIxQNQa6x-3" edge="1">
          <mxGeometry relative="1" as="geometry" />
        </mxCell>
        <mxCell id="7F-Ce298isWdIxQNQa6x-41" value="" style="rounded=1;whiteSpace=wrap;html=1;" parent="1" vertex="1">
          <mxGeometry x="929" y="750" width="170" height="50" as="geometry" />
        </mxCell>
        <mxCell id="7F-Ce298isWdIxQNQa6x-42" value="" style="ellipse;whiteSpace=wrap;html=1;aspect=fixed;fillColor=#c8e3ca;" parent="1" vertex="1">
          <mxGeometry x="939" y="760" width="30" height="30" as="geometry" />
        </mxCell>
        <mxCell id="7F-Ce298isWdIxQNQa6x-43" value="" style="ellipse;whiteSpace=wrap;html=1;aspect=fixed;fillColor=#c8e3ca;" parent="1" vertex="1">
          <mxGeometry x="979" y="760" width="30" height="30" as="geometry" />
        </mxCell>
        <mxCell id="7F-Ce298isWdIxQNQa6x-44" value="" style="ellipse;whiteSpace=wrap;html=1;aspect=fixed;fillColor=#c8e3ca;" parent="1" vertex="1">
          <mxGeometry x="1059" y="760" width="30" height="30" as="geometry" />
        </mxCell>
        <mxCell id="7F-Ce298isWdIxQNQa6x-45" value="" style="ellipse;whiteSpace=wrap;html=1;aspect=fixed;fillColor=#c8e3ca;" parent="1" vertex="1">
          <mxGeometry x="1019" y="760" width="30" height="30" as="geometry" />
        </mxCell>
        <mxCell id="7F-Ce298isWdIxQNQa6x-65" style="edgeStyle=orthogonalEdgeStyle;rounded=0;orthogonalLoop=1;jettySize=auto;html=1;exitX=0.5;exitY=0;exitDx=0;exitDy=0;entryX=0.5;entryY=1;entryDx=0;entryDy=0;" parent="1" source="7F-Ce298isWdIxQNQa6x-47" target="7F-Ce298isWdIxQNQa6x-3" edge="1">
          <mxGeometry relative="1" as="geometry" />
        </mxCell>
        <mxCell id="7F-Ce298isWdIxQNQa6x-47" value="" style="rounded=1;whiteSpace=wrap;html=1;" parent="1" vertex="1">
          <mxGeometry x="1219" y="750" width="170" height="50" as="geometry" />
        </mxCell>
        <mxCell id="7F-Ce298isWdIxQNQa6x-48" value="" style="ellipse;whiteSpace=wrap;html=1;aspect=fixed;fillColor=#afc8ea;" parent="1" vertex="1">
          <mxGeometry x="1229" y="760" width="30" height="30" as="geometry" />
        </mxCell>
        <mxCell id="7F-Ce298isWdIxQNQa6x-49" value="" style="ellipse;whiteSpace=wrap;html=1;aspect=fixed;fillColor=#afc8ea;" parent="1" vertex="1">
          <mxGeometry x="1289" y="760" width="30" height="30" as="geometry" />
        </mxCell>
        <mxCell id="7F-Ce298isWdIxQNQa6x-50" value="" style="ellipse;whiteSpace=wrap;html=1;aspect=fixed;fillColor=#afc8ea;" parent="1" vertex="1">
          <mxGeometry x="1349" y="760" width="30" height="30" as="geometry" />
        </mxCell>
        <mxCell id="7F-Ce298isWdIxQNQa6x-67" style="edgeStyle=orthogonalEdgeStyle;rounded=0;orthogonalLoop=1;jettySize=auto;html=1;exitX=0.5;exitY=0;exitDx=0;exitDy=0;entryX=0.5;entryY=1;entryDx=0;entryDy=0;endArrow=none;endFill=0;" parent="1" source="7F-Ce298isWdIxQNQa6x-52" target="7F-Ce298isWdIxQNQa6x-3" edge="1">
          <mxGeometry relative="1" as="geometry" />
        </mxCell>
        <mxCell id="7F-Ce298isWdIxQNQa6x-52" value="" style="rounded=1;whiteSpace=wrap;html=1;" parent="1" vertex="1">
          <mxGeometry x="1509" y="750" width="170" height="50" as="geometry" />
        </mxCell>
        <mxCell id="7F-Ce298isWdIxQNQa6x-53" value="" style="ellipse;whiteSpace=wrap;html=1;aspect=fixed;fillColor=#fef1e0;" parent="1" vertex="1">
          <mxGeometry x="1518" y="760" width="30" height="30" as="geometry" />
        </mxCell>
        <mxCell id="7F-Ce298isWdIxQNQa6x-54" value="" style="ellipse;whiteSpace=wrap;html=1;aspect=fixed;fillColor=#fef1e0;" parent="1" vertex="1">
          <mxGeometry x="1559" y="760" width="30" height="30" as="geometry" />
        </mxCell>
        <mxCell id="7F-Ce298isWdIxQNQa6x-55" value="" style="ellipse;whiteSpace=wrap;html=1;aspect=fixed;fillColor=#fef1e0;" parent="1" vertex="1">
          <mxGeometry x="1639" y="760" width="30" height="30" as="geometry" />
        </mxCell>
        <mxCell id="7F-Ce298isWdIxQNQa6x-56" value="" style="ellipse;whiteSpace=wrap;html=1;aspect=fixed;fillColor=#fef1e0;" parent="1" vertex="1">
          <mxGeometry x="1599" y="760" width="30" height="30" as="geometry" />
        </mxCell>
        <mxCell id="7F-Ce298isWdIxQNQa6x-69" style="edgeStyle=orthogonalEdgeStyle;rounded=0;orthogonalLoop=1;jettySize=auto;html=1;exitX=0.5;exitY=0;exitDx=0;exitDy=0;entryX=0.5;entryY=1;entryDx=0;entryDy=0;endArrow=none;endFill=0;" parent="1" source="7F-Ce298isWdIxQNQa6x-58" target="7F-Ce298isWdIxQNQa6x-3" edge="1">
          <mxGeometry relative="1" as="geometry" />
        </mxCell>
        <mxCell id="7F-Ce298isWdIxQNQa6x-58" value="" style="rounded=1;whiteSpace=wrap;html=1;" parent="1" vertex="1">
          <mxGeometry x="1819" y="750" width="170" height="50" as="geometry" />
        </mxCell>
        <mxCell id="7F-Ce298isWdIxQNQa6x-59" value="" style="ellipse;whiteSpace=wrap;html=1;aspect=fixed;fillColor=#ffd9d0;" parent="1" vertex="1">
          <mxGeometry x="1829" y="760" width="30" height="30" as="geometry" />
        </mxCell>
        <mxCell id="7F-Ce298isWdIxQNQa6x-60" value="" style="ellipse;whiteSpace=wrap;html=1;aspect=fixed;fillColor=#ffd9d0;" parent="1" vertex="1">
          <mxGeometry x="1869" y="760" width="30" height="30" as="geometry" />
        </mxCell>
        <mxCell id="7F-Ce298isWdIxQNQa6x-61" value="" style="ellipse;whiteSpace=wrap;html=1;aspect=fixed;fillColor=#ffd9d0;" parent="1" vertex="1">
          <mxGeometry x="1949" y="760" width="30" height="30" as="geometry" />
        </mxCell>
        <mxCell id="7F-Ce298isWdIxQNQa6x-62" value="" style="ellipse;whiteSpace=wrap;html=1;aspect=fixed;fillColor=#ffd9d0;" parent="1" vertex="1">
          <mxGeometry x="1909" y="760" width="30" height="30" as="geometry" />
        </mxCell>
        <mxCell id="7F-Ce298isWdIxQNQa6x-63" value="&lt;span style=&quot;background-color: initial;&quot;&gt;&lt;font face=&quot;Times New Roman&quot; style=&quot;font-size: 30px;&quot;&gt;Concatenation&lt;/font&gt;&lt;/span&gt;" style="text;html=1;align=center;verticalAlign=middle;resizable=0;points=[];autosize=1;strokeColor=none;fillColor=none;" parent="1" vertex="1">
          <mxGeometry x="1489" y="600" width="200" height="50" as="geometry" />
        </mxCell>
      </root>
    </mxGraphModel>
  </diagram>
</mxfile>
